<svg width="26" height="26" viewBox="0 0 26 26" fill="none" xmlns="http://www.w3.org/2000/svg">
<path d="M24.9384 19.4349L24.9384 19.4349C25.635 20.1316 25.6695 21.3775 24.926 22.239L22.4762 24.6887L22.8298 25.0423L22.4762 24.6887C21.9476 25.2174 21.1749 25.4982 20.1623 25.5C19.1454 25.5019 17.9205 25.2205 16.5566 24.6607C13.8305 23.5419 10.6445 21.3504 7.63316 18.3391C4.62341 15.3293 2.46414 12.1442 1.36104 9.41794C0.809163 8.05401 0.530636 6.82713 0.526894 5.80721C0.523169 4.79225 0.789946 4.01851 1.28825 3.49124L3.74561 1.03387C4.44224 0.337242 5.68819 0.302798 6.54964 1.04622L10.1657 4.66225C11.2118 5.70837 10.7672 7.44728 9.46509 7.84794L9.46505 7.84781L9.45403 7.85148C8.07715 8.31038 7.10207 9.84892 7.57571 11.3133C7.93563 12.7967 9.0402 14.3898 10.3461 15.6792C11.6585 16.9749 13.2572 18.0459 14.6743 18.4002L14.6742 18.4004L14.687 18.4032C16.0796 18.7127 17.6435 17.9501 18.1207 16.5182L18.1209 16.5182L18.1243 16.5071C18.5249 15.205 20.2639 14.7604 21.31 15.8066L24.9384 19.4349Z" fill="white" stroke="black"/>
</svg>
