<svg width="176" height="86" viewBox="0 0 176 86" fill="none" xmlns="http://www.w3.org/2000/svg">
<g clip-path="url(#clip0)">
<path d="M0 17.0717V34.2002H7.28179C15.9974 34.2002 16.7565 34.0292 19.0058 31.7777C20.1304 30.6662 20.5521 29.9252 21.03 28.5002C22.6326 23.3987 21.6767 19.6937 18.1342 17.1572L16.7284 16.1312L18.0217 14.8202C19.6524 13.1672 20.2428 11.4857 20.2428 8.4362C20.2428 4.7027 18.7246 2.2802 15.4914 0.769699C14.3105 0.199699 13.6077 0.1427 7.1131 0.0572014L0 -0.0568008V17.0717ZM14.7323 4.1042C17.0939 5.5007 17.8249 8.6072 16.4473 11.4857C15.3508 13.8512 13.0454 14.5922 7.22556 14.4782L3.34569 14.3927L3.28946 8.7497L3.23323 3.0782L8.29393 3.1922C13.2703 3.2777 13.3827 3.2777 14.7323 4.1042ZM13.8326 17.9552C16.4192 18.6962 18.5559 21.4037 18.5559 23.9402C18.5559 27.3032 16.7847 30.0962 14.2543 30.7232C13.5233 30.9227 10.8524 31.0652 8.09713 31.0652H3.23323V24.3677V17.6702H8.01278C10.6556 17.6702 13.2703 17.8127 13.8326 17.9552Z" fill="#FDFFFF"/>
<path d="M95.591 17.0717V34.2002H102.845C108.355 34.2002 110.436 34.1147 111.448 33.8012C115.075 32.6897 117.071 29.7827 117.436 25.0517C117.549 23.4272 117.493 22.5437 117.127 21.4322C116.565 19.7792 114.709 17.4992 113.247 16.7012L112.263 16.1597L113.472 15.0482C115.356 13.2812 115.946 11.7707 115.974 8.5502C115.974 6.29869 115.862 5.6432 115.356 4.6742C114.484 2.99269 113.135 1.7387 111.335 0.883694C109.817 0.171196 109.648 0.142696 102.704 0.0571938L95.591 -0.0283051V17.0717ZM109.255 3.56269C111.588 4.24669 112.797 5.9567 112.797 8.5217C112.797 11.1722 111.982 12.5972 109.789 13.7657C108.805 14.3072 108.102 14.3927 103.829 14.4782L98.9648 14.5922V8.8637V3.13519H103.407C106.528 3.13519 108.271 3.2492 109.255 3.56269ZM109.677 18.0122C112.544 18.9812 114.147 21.1187 114.147 23.9402C114.147 26.1917 113.725 27.6167 112.685 28.9277C111.167 30.7802 110.689 30.8942 104.532 31.0082L98.9648 31.1222V24.3962V17.6702H103.857C106.809 17.6702 109.086 17.8127 109.677 18.0122Z" fill="#FDFFFF"/>
<path d="M34.7219 11.2289C33.9628 11.4284 32.9507 11.7704 32.4727 11.9414C31.4044 12.3689 28.9584 14.0219 28.9584 14.3354C28.9584 14.4779 29.3801 15.0194 29.9143 15.5894L30.8702 16.6154L31.6574 15.8459C33.0069 14.5919 35.2561 13.8794 37.9552 13.8509C39.867 13.8224 40.5418 13.9364 41.329 14.3924C42.6785 15.2189 43.3251 16.5014 43.522 18.6674L43.6625 20.5199H40.1763C36.2402 20.5199 33.6255 21.0044 31.5449 22.0589C26.1187 24.8519 26.7092 32.6609 32.4727 34.3424C33.6817 34.7129 34.7219 34.7984 36.3526 34.6844C39.2485 34.4849 41.2446 33.5159 42.7628 31.5779L43.8593 30.1529V31.1219C43.8593 31.6349 43.9437 32.5469 44.028 33.1169C44.2248 34.1999 44.2248 34.1999 45.6025 34.1999H47.0082L46.8395 33.1169C46.7552 32.5469 46.6146 28.6709 46.5303 24.5099C46.3335 16.2164 46.1648 15.2759 44.6184 13.4804C43.2127 11.8559 41.3009 11.0579 38.5175 10.9439C37.0836 10.8869 35.5654 11.0009 34.7219 11.2289ZM43.4938 24.7379C43.1283 28.8989 39.9513 31.7204 35.5654 31.7489C34.0753 31.7774 33.3724 31.6349 32.782 31.2644C31.7418 30.5519 31.1232 28.9844 31.2919 27.4169C31.6293 24.2819 34.0191 23.1989 40.7386 23.1134L43.6625 23.0849L43.4938 24.7379Z" fill="#FDFFFF"/>
<path d="M61.853 11.0867C60.4754 11.5142 59.1821 12.3407 58.0013 13.4807L56.7923 14.6492V13.0247V11.4002H55.1054H53.4185V22.8002V34.2002H55.0773H56.7361L56.8485 26.9897C56.9329 20.2067 56.961 19.7222 57.5795 18.3827C59.2102 14.7632 62.8933 13.0817 65.761 14.5922C68.3195 15.9317 68.6006 17.1287 68.6006 27.1322V34.2002H70.1188H71.6089L71.7776 27.7022C71.9463 20.4347 72.1993 18.8102 73.4645 16.9007C75.6575 13.5947 80.6057 13.1102 82.7144 15.9887C83.5297 17.0717 83.7827 19.6937 83.7827 27.2747V34.2002H85.4977H87.2409L87.0722 25.9922C86.9035 17.0432 86.7348 15.8747 85.2166 13.7372C84.7386 13.1102 83.7546 12.2267 83.0236 11.7707C81.8147 11.0582 81.393 10.9727 79.2843 10.9727C77.26 10.9727 76.6977 11.0867 75.4888 11.7422C74.0549 12.5117 71.4121 15.0767 71.4121 15.7322C71.384 15.9317 71.0747 15.5042 70.7092 14.7632C69.8658 13.1672 68.3757 11.8562 66.6607 11.2577C65.3393 10.8017 63.0339 10.7162 61.853 11.0867Z" fill="#FDFFFF"/>
<path d="M132.113 11.2289C129.217 12.0269 126.012 14.8769 124.606 17.8694C123.903 19.3799 123.847 19.8359 123.847 22.9424C123.847 26.1344 123.903 26.4764 124.662 27.9584C125.955 30.5804 127.67 32.3189 130.116 33.5444C132.197 34.5989 132.337 34.6274 135.346 34.6274C138.157 34.6274 138.635 34.5419 140.097 33.8579C142.15 32.8889 143.415 31.8344 144.821 29.9249C147.267 26.6474 147.744 21.6599 146.001 17.8694C144.989 15.7319 142.993 13.3949 141.222 12.3404C138.804 10.9154 134.98 10.4309 132.113 11.2289ZM139.029 14.9624C142.431 16.6439 144.23 20.3774 143.612 24.4244C143.105 27.6449 141.278 29.9819 138.382 31.0649C135.711 32.0909 132.928 31.7489 130.538 30.1244C127.249 27.8729 125.983 23.0849 127.642 19.2089C128.626 16.9004 130.988 14.8769 133.406 14.2214C134.896 13.8224 137.426 14.1359 139.029 14.9624Z" fill="#FDFFFF"/>
<path d="M161.015 11.1436C156.797 12.1411 153.199 16.1881 152.355 20.8906C151.287 26.7331 154.97 32.6896 160.649 34.3426C163.236 35.1121 166.778 34.8271 169.084 33.6586C171.333 32.5471 173.498 30.2386 174.678 27.7306C175.522 25.9351 175.578 25.5646 175.55 22.9426C175.55 19.6366 174.988 17.8411 173.245 15.5326C170.405 11.7421 165.654 10.0321 161.015 11.1436ZM167.369 14.7631C169.196 15.5896 171.052 17.6131 171.783 19.6081C172.992 22.8286 172.232 26.7901 169.899 29.2126C168.296 30.8941 166.722 31.4926 163.91 31.4926C161.858 31.4926 161.324 31.3786 160.087 30.7231C158.428 29.8396 157.05 28.3291 156.207 26.5336C155.363 24.6241 155.392 21.2041 156.291 19.1521C157.135 17.2426 159.525 14.9911 161.324 14.3926C163.039 13.8511 165.682 13.9936 167.369 14.7631Z" fill="#FDFFFF"/>
<path d="M42.7631 39.4157C42.257 39.9287 42.3976 40.7552 43.1005 41.0402C43.7471 41.2967 50.6915 42.1802 52.1816 42.1802C52.8002 42.1802 53.1375 41.9807 53.503 41.3537L54.0091 40.4987L53.0813 40.3562C52.5752 40.2707 50.4385 40.0142 48.358 39.7577C46.2775 39.5297 44.2251 39.2732 43.8315 39.1877C43.4379 39.1307 42.9599 39.2162 42.7631 39.4157Z" fill="#FDFFFF"/>
<path d="M54.7118 41.4676C54.4588 41.8381 54.262 42.2656 54.262 42.4081C54.262 42.5506 55.3585 42.7786 56.7361 42.8926C61.2345 43.2631 61.7687 43.5196 57.7482 43.3771L53.784 43.2346L53.1936 44.1181C52.8562 44.5741 52.5751 45.1156 52.5751 45.2866C52.5751 45.5146 56.6518 45.6001 66.6607 45.6001H80.7463L81.8428 44.7166C82.4332 44.2321 82.9393 43.7191 82.9393 43.5766C82.9393 43.4341 81.7022 43.3201 80.1559 43.3201C78.6377 43.3201 72.7054 42.7501 66.8856 42.0376C61.0939 41.3251 56.0895 40.7551 55.7802 40.7551C55.4428 40.7551 54.9649 41.0686 54.7118 41.4676Z" fill="#FDFFFF"/>
<path d="M0.477787 43.6336C-0.0845133 43.9756 -0.140743 44.7736 0.337212 45.2581C0.590247 45.5146 3.85159 45.6001 13.242 45.6001H25.8375L26.3998 44.7736C26.7372 44.3176 26.9903 43.8046 26.9903 43.6336C26.9903 43.2061 1.20878 43.2061 0.477787 43.6336Z" fill="#FDFFFF"/>
<path d="M28.1147 44.2321C27.8054 44.7451 27.5524 45.2581 27.5524 45.3721C27.5524 45.5146 32.7818 45.6001 39.192 45.6001H50.8597L51.422 44.7736C51.7594 44.3176 52.0124 43.8046 52.0124 43.6336C52.0124 43.4056 48.6105 43.3201 40.3447 43.3201H28.677L28.1147 44.2321Z" fill="#FDFFFF"/>
<path d="M83.5858 44.4884C82.9111 45.1154 82.3769 45.7139 82.3769 45.8279C82.3769 45.9419 82.7143 46.0844 83.1641 46.1129C83.9794 46.1699 84.5136 46.2269 96.828 47.7374L104.953 48.7349L106.05 47.9939C106.64 47.5664 107.118 47.1389 107.118 47.0249C107.118 46.9394 104.869 46.5974 102.142 46.2839L97.1373 45.7424L109.002 45.6569L120.866 45.5999L121.429 44.7734C121.766 44.3174 122.019 43.8044 122.019 43.6334C122.019 43.4054 116.705 43.3199 103.407 43.3199L84.7667 43.3484L83.5858 44.4884Z" fill="#FDFFFF"/>
<path d="M123.172 44.1466C122.835 44.6026 122.581 45.1156 122.581 45.2866C122.581 45.5146 126.152 45.6001 134.896 45.6001H147.21L148.391 44.6881C149.038 44.1751 149.572 43.6621 149.572 43.5481C149.572 43.4341 143.752 43.3201 136.667 43.3201H123.734L123.172 44.1466Z" fill="#FDFFFF"/>
<path d="M150.64 44.1181C150.05 44.5456 149.572 45.0586 149.572 45.2296C149.572 45.5146 152.299 45.6001 162.336 45.6001C169.365 45.6001 175.297 45.5146 175.55 45.4291C176.141 45.2011 176.141 43.7191 175.55 43.4911C175.297 43.4056 169.843 43.3201 163.404 43.3201L151.68 43.3486L150.64 44.1181Z" fill="#FDFFFF"/>
<path d="M107.849 48.0509C107.428 48.4499 107.118 48.8489 107.231 48.9344C107.315 49.0199 109.255 49.3049 111.532 49.5614L115.693 50.0459L113.444 50.2454C112.207 50.3594 104.054 50.7014 95.31 51.0434L79.425 51.6419L78.8065 52.4114C77.6257 53.8079 77.8506 53.9504 81.0557 53.7509C82.6302 53.6369 91.6551 53.2379 101.074 52.8389C110.52 52.4684 120.642 52.0409 123.566 51.8984C128.823 51.6704 129.048 51.6989 138.888 52.8959L148.869 54.1499L150.331 53.4944C151.653 52.9244 152.215 52.4684 151.624 52.4114C151.484 52.4114 149.122 52.1264 146.339 51.7559L141.278 51.1289L146.058 50.9294C164.22 50.2454 173.245 49.8464 174.538 49.7039C175.916 49.5614 176 49.5044 176 48.7349C176 48.2789 175.888 47.8514 175.747 47.7659C175.635 47.6804 172.795 47.7374 169.506 47.8799C166.188 48.0224 155.701 48.4784 146.198 48.8774L128.907 49.6184L119.405 48.4784C114.175 47.8229 109.621 47.3099 109.283 47.3099C108.946 47.3099 108.299 47.6519 107.849 48.0509Z" fill="#FDFFFF"/>
<path d="M65.2831 52.3262C57.1298 52.6967 56.2301 52.8392 56.2301 53.7227C56.2301 54.7202 56.8486 54.7772 65.1426 54.4352C76.6978 53.9792 76.6697 54.0077 77.1758 53.0102C77.4007 52.5542 77.5975 52.1267 77.5975 52.0127C77.5975 51.8132 75.1515 51.8702 65.2831 52.3262Z" fill="#FDFFFF"/>
<path d="M152.468 53.3805C151.315 53.9505 150.921 54.435 151.568 54.435C151.709 54.435 156.544 55.005 162.252 55.7175C167.987 56.43 173.273 57 174.06 57C175.325 57 175.438 56.943 175.438 56.316C175.438 55.917 175.297 55.518 175.128 55.404C174.819 55.2045 155.251 52.725 154.211 52.7535C153.901 52.7535 153.114 53.0385 152.468 53.3805Z" fill="#FDFFFF"/>
</g>
<path d="M146.512 68.928C146.488 66.456 144.856 65.064 141.952 65.064C139.024 65.064 137.128 66.576 137.128 68.904C137.128 70.872 138.136 71.808 141.112 72.528L142.984 72.984C144.376 73.32 144.928 73.824 144.928 74.736C144.928 75.912 143.752 76.704 142 76.704C140.92 76.704 140.008 76.392 139.504 75.864C139.192 75.504 139.048 75.144 138.928 74.256H136.816C136.912 77.16 138.544 78.552 141.832 78.552C145 78.552 147.016 76.992 147.016 74.568C147.016 72.696 145.96 71.664 143.464 71.064L141.544 70.608C139.912 70.224 139.216 69.696 139.216 68.808C139.216 67.656 140.248 66.912 141.88 66.912C143.488 66.912 144.352 67.608 144.4 68.928H146.512ZM149.296 83.232H151.312V76.68C152.368 77.976 153.544 78.552 155.176 78.552C158.416 78.552 160.552 75.936 160.552 71.928C160.552 67.704 158.488 65.064 155.152 65.064C153.448 65.064 152.08 65.832 151.144 67.32V65.424H149.296V83.232ZM154.816 66.936C157.024 66.936 158.464 68.88 158.464 71.88C158.464 74.736 157 76.68 154.816 76.68C152.704 76.68 151.312 74.76 151.312 71.808C151.312 68.856 152.704 66.936 154.816 66.936ZM174.176 76.824C173.96 76.872 173.864 76.872 173.744 76.872C173.048 76.872 172.664 76.512 172.664 75.888V68.496C172.664 66.264 171.032 65.064 167.936 65.064C166.112 65.064 164.6 65.592 163.76 66.528C163.184 67.176 162.944 67.896 162.896 69.144H164.912C165.08 67.608 165.992 66.912 167.864 66.912C169.664 66.912 170.672 67.584 170.672 68.784V69.312C170.672 70.152 170.168 70.512 168.584 70.704C165.752 71.064 165.32 71.16 164.552 71.472C163.088 72.072 162.344 73.2 162.344 74.832C162.344 77.112 163.928 78.552 166.472 78.552C168.056 78.552 169.328 78 170.744 76.704C170.888 77.976 171.512 78.552 172.808 78.552C173.216 78.552 173.528 78.504 174.176 78.336V76.824ZM170.672 74.04C170.672 74.712 170.48 75.12 169.88 75.672C169.064 76.416 168.08 76.8 166.904 76.8C165.344 76.8 164.432 76.056 164.432 74.784C164.432 73.464 165.32 72.792 167.456 72.48C169.568 72.192 170 72.096 170.672 71.784V74.04Z" fill="white"/>
<defs>
<clipPath id="clip0">
<rect width="176" height="57" fill="white"/>
</clipPath>
</defs>
</svg>
